<?xml version="1.0" encoding="utf-8"?>
<svg width="33" height="25" viewBox="0 0 33 25" xmlns="http://www.w3.org/2000/svg"
    xmlns:xlink="http://www.w3.org/1999/xlink">
    <svg xml:space="preserve" width="33" height="9"
        style="shape-rendering:geometricPrecision;text-rendering:geometricPrecision;image-rendering:optimizeQuality;fill-rule:evenodd;clip-rule:evenodd"
        viewBox="0 0 1.71 0.46" id="eye-closed" xmlns="http://www.w3.org/2000/svg"><path class="afil0 astr0" d="M1.68.06c0 .3-.62.38-.83.38C.4.44.03.27.02.06.02.04.04.03.06.03c.01 0 .03.01.03.03 0 .17.34.31.76.31.43 0 .77-.14.77-.31 0-.02.01-.04.03-.04.02 0 .03.02.03.04z"/></svg>
    <svg xml:space="preserve" width="33" height="16"
        style="shape-rendering:geometricPrecision;text-rendering:geometricPrecision;image-rendering:optimizeQuality;fill-rule:evenodd;clip-rule:evenodd"
        viewBox="0 0 1.71 0.81" id="eye-opened" y="9" xmlns="http://www.w3.org/2000/svg"><path class="bfil0 bstr0" d="M.85.13c.15 0 .28.13.28.28 0 .15-.13.27-.28.27C.7.68.58.56.58.41.58.26.7.13.85.13zm0 .07c.12 0 .21.09.21.21 0 .11-.09.2-.21.2a.2.2 0 0 1-.2-.2C.65.29.74.2.85.2z"/><path class="bfil0 bstr0" d="M.85.02c.46 0 .83.17.83.39 0 .21-.37.38-.83.38C.39.79.02.62.02.41.02.19.39.02.85.02zm0 .07c.43 0 .77.14.77.32 0 .17-.34.32-.77.32C.43.73.09.58.09.41.09.23.43.09.85.09z"/></svg>
</svg>