<svg xmlns="http://www.w3.org/2000/svg" xml:space="preserve" width="33px" height="16px"
    version="1.1"
    style="shape-rendering:geometricPrecision; text-rendering:geometricPrecision; image-rendering:optimizeQuality; fill-rule:evenodd; clip-rule:evenodd"
    viewBox="0 0 1.71 0.81"
    xmlns:xlink="http://www.w3.org/1999/xlink">

  <g id="_2405255562960">
   <path class="fil0 str0" d="M0.85 0.13c0.15,0 0.28,0.13 0.28,0.28 0,0.15 -0.13,0.27 -0.28,0.27 -0.15,0 -0.27,-0.12 -0.27,-0.27 0,-0.15 0.12,-0.28 0.27,-0.28zm0 0.07c0.12,0 0.21,0.09 0.21,0.21 0,0.11 -0.09,0.2 -0.21,0.2 -0.11,0 -0.2,-0.09 -0.2,-0.2 0,-0.12 0.09,-0.21 0.2,-0.21z"/>
   <path class="fil0 str0" d="M0.85 0.02c0.46,0 0.83,0.17 0.83,0.39 0,0.21 -0.37,0.38 -0.83,0.38 -0.46,0 -0.83,-0.17 -0.83,-0.38 0,-0.22 0.37,-0.39 0.83,-0.39zm0 0.07c0.43,0 0.77,0.14 0.77,0.32 0,0.17 -0.34,0.32 -0.77,0.32 -0.42,0 -0.76,-0.15 -0.76,-0.32 0,-0.18 0.34,-0.32 0.76,-0.32z"/>
  </g>

</svg>